<svg xmlns="http://www.w3.org/2000/svg" viewBox="0 0 200 50">
  <defs>
    <linearGradient id="accentGradient" x1="0%" y1="0%" x2="100%" y2="100%">
      <stop offset="0%" style="stop-color:#FF3F00"/>
      <stop offset="100%" style="stop-color:#FF5C26"/>
    </linearGradient>
  </defs>
  
  <!-- Y 字母 -->
  <path d="M 10 5 L 10 25 L 25 40 L 30 40 L 15 25 L 30 10 L 30 5 Z" fill="#006847"/>
  <path d="M 15 25 L 15 45 L 25 45 L 25 25 Z" fill="#006847"/>
  
  <!-- 橙色弧线 -->
  <path d="M 12 15 Q 20 8 35 12" stroke="url(#accentGradient)" stroke-width="3.5" fill="none" stroke-linecap="round"/>
  
  <!-- o 字母 -->
  <ellipse cx="55" cy="27" rx="10" ry="12" fill="#006847"/>
  
  <!-- l 字母 -->
  <rect x="70" y="5" width="6" height="35" fill="#006847"/>
  
  <!-- o 字母 -->
  <ellipse cx="95" cy="27" rx="10" ry="12" fill="#006847"/>
  
  <!-- n 字母 -->
  <path d="M 110 40 L 110 15 Q 110 5 120 5 Q 130 5 130 15 L 130 40 L 124 40 L 124 18 Q 124 10 120 10 Q 116 10 116 18 L 116 40 Z" fill="#006847"/>
  
  <!-- g 字母 -->
  <ellipse cx="150" cy="27" rx="10" ry="12" fill="#006847"/>
  <path d="M 150 35 Q 165 35 165 45 Q 165 50 155 50 Q 150 50 148 45 L 154 43 Q 155 45 157 45 Q 159 45 159 43 Q 159 40 150 40 L 145 40 L 145 35 Z" fill="#006847"/>
</svg>
